<svg id="visual" viewBox="0 0 900 600" width="900" height="600" xmlns="http://www.w3.org/2000/svg" xmlns:xlink="http://www.w3.org/1999/xlink" version="1.1"><rect x="0" y="0" width="900" height="600" fill="#002233"></rect><path d="M0 478L13.7 475C27.3 472 54.7 466 82 467.7C109.3 469.3 136.7 478.7 163.8 483.5C191 488.3 218 488.7 245.2 465.7C272.3 442.7 299.7 396.3 327 377.5C354.3 358.7 381.7 367.3 409 378.7C436.3 390 463.7 404 491 422.3C518.3 440.7 545.7 463.3 573 476.3C600.3 489.3 627.7 492.7 654.8 467C682 441.3 709 386.7 736.2 373.8C763.3 361 790.7 390 818 415.3C845.3 440.7 872.7 462.3 886.3 473.2L900 484L900 601L886.3 601C872.7 601 845.3 601 818 601C790.7 601 763.3 601 736.2 601C709 601 682 601 654.8 601C627.7 601 600.3 601 573 601C545.7 601 518.3 601 491 601C463.7 601 436.3 601 409 601C381.7 601 354.3 601 327 601C299.7 601 272.3 601 245.2 601C218 601 191 601 163.8 601C136.7 601 109.3 601 82 601C54.7 601 27.3 601 13.7 601L0 601Z" fill="#0066FF" stroke-linecap="round" stroke-linejoin="miter"></path></svg>