<svg id="visual" viewBox="0 0 960 540" width="960" height="540" xmlns="http://www.w3.org/2000/svg" xmlns:xlink="http://www.w3.org/1999/xlink" version="1.1"><rect x="0" y="0" width="960" height="540" fill="#140021"></rect><path d="M0 248L137 248L137 293L274 293L274 260L411 260L411 270L549 270L549 285L686 285L686 338L823 338L823 330L960 330L960 308L960 541L960 541L823 541L823 541L686 541L686 541L549 541L549 541L411 541L411 541L274 541L274 541L137 541L137 541L0 541Z" fill="#9900ff"></path><path d="M0 356L137 356L137 373L274 373L274 322L411 322L411 374L549 374L549 349L686 349L686 318L823 318L823 407L960 407L960 373L960 541L960 541L823 541L823 541L686 541L686 541L549 541L549 541L411 541L411 541L274 541L274 541L137 541L137 541L0 541Z" fill="#7700c6"></path><path d="M0 476L137 476L137 465L274 465L274 429L411 429L411 461L549 461L549 468L686 468L686 449L823 449L823 437L960 437L960 487L960 541L960 541L823 541L823 541L686 541L686 541L549 541L549 541L411 541L411 541L274 541L274 541L137 541L137 541L0 541Z" fill="#560090"></path></svg>