<svg id="visual" viewBox="0 0 960 540" width="960" height="540" xmlns="http://www.w3.org/2000/svg" xmlns:xlink="http://www.w3.org/1999/xlink" version="1.1"><g stroke-width="1" stroke-linejoin="bevel"><path d="M432.7 272L532.3 236L404.7 180Z" fill="#277297" stroke="#277297"></path><path d="M532.3 236L537.3 174L404.7 180Z" fill="#297ea6" stroke="#297ea6"></path><path d="M537.3 174L465.7 65L404.7 180Z" fill="#297ea6" stroke="#297ea6"></path><path d="M432.7 272L545.3 331L532.3 236Z" fill="#112e42" stroke="#112e42"></path><path d="M532.3 236L658 163L537.3 174Z" fill="#112e42" stroke="#112e42"></path><path d="M525.3 85L465.7 65L537.3 174Z" fill="#15384f" stroke="#15384f"></path><path d="M326 393L428.7 376L432.7 272Z" fill="#19435d" stroke="#19435d"></path><path d="M432.7 272L428.7 376L545.3 331Z" fill="#081a28" stroke="#081a28"></path><path d="M545.3 331L640 276L532.3 236Z" fill="#1d4e6b" stroke="#1d4e6b"></path><path d="M537.3 174L631 73L525.3 85Z" fill="#0c2435" stroke="#0c2435"></path><path d="M294 101L282 197L404.7 180Z" fill="#297ea6" stroke="#297ea6"></path><path d="M404.7 180L286 273L432.7 272Z" fill="#297ea6" stroke="#297ea6"></path><path d="M282 197L286 273L404.7 180Z" fill="#1d4e6b" stroke="#1d4e6b"></path><path d="M640 276L658 163L532.3 236Z" fill="#246688" stroke="#246688"></path><path d="M545.3 331L631 332L640 276Z" fill="#00101c" stroke="#00101c"></path><path d="M618 486L631 332L545.3 331Z" fill="#0c2435" stroke="#0c2435"></path><path d="M465.7 65L294 101L404.7 180Z" fill="#19435d" stroke="#19435d"></path><path d="M516.3 0L451.7 0L465.7 65Z" fill="#246688" stroke="#246688"></path><path d="M465.7 65L353 0L294 101Z" fill="#00101c" stroke="#00101c"></path><path d="M516.3 0L465.7 65L525.3 85Z" fill="#19435d" stroke="#19435d"></path><path d="M658 163L631 73L537.3 174Z" fill="#112e42" stroke="#112e42"></path><path d="M631 73L516.3 0L525.3 85Z" fill="#277297" stroke="#277297"></path><path d="M286 273L326 393L432.7 272Z" fill="#112e42" stroke="#112e42"></path><path d="M326 393L354 412L428.7 376Z" fill="#0c2435" stroke="#0c2435"></path><path d="M428.7 376L517.3 479L545.3 331Z" fill="#19435d" stroke="#19435d"></path><path d="M177.3 212L247.3 307L286 273Z" fill="#205a7a" stroke="#205a7a"></path><path d="M286 273L247.3 307L326 393Z" fill="#0c2435" stroke="#0c2435"></path><path d="M177.3 212L286 273L282 197Z" fill="#15384f" stroke="#15384f"></path><path d="M451.7 0L353 0L465.7 65Z" fill="#15384f" stroke="#15384f"></path><path d="M725.7 257L710.7 157L658 163Z" fill="#297ea6" stroke="#297ea6"></path><path d="M658 163L710.7 157L631 73Z" fill="#277297" stroke="#277297"></path><path d="M725.7 257L658 163L640 276Z" fill="#246688" stroke="#246688"></path><path d="M354 412L431.7 463L428.7 376Z" fill="#277297" stroke="#277297"></path><path d="M719.7 341L725.7 257L640 276Z" fill="#00101c" stroke="#00101c"></path><path d="M431.7 463L517.3 479L428.7 376Z" fill="#00101c" stroke="#00101c"></path><path d="M631 332L719.7 341L640 276Z" fill="#00101c" stroke="#00101c"></path><path d="M618 486L719.7 341L631 332Z" fill="#19435d" stroke="#19435d"></path><path d="M174.3 85L177.3 212L282 197Z" fill="#1d4e6b" stroke="#1d4e6b"></path><path d="M174.3 85L282 197L294 101Z" fill="#112e42" stroke="#112e42"></path><path d="M755.7 122L672 0L631 73Z" fill="#081a28" stroke="#081a28"></path><path d="M631 73L672 0L516.3 0Z" fill="#081a28" stroke="#081a28"></path><path d="M710.7 157L755.7 122L631 73Z" fill="#246688" stroke="#246688"></path><path d="M852.3 169L755.7 122L710.7 157Z" fill="#297ea6" stroke="#297ea6"></path><path d="M852.3 169L710.7 157L725.7 257Z" fill="#277297" stroke="#277297"></path><path d="M131.7 270L207.3 376L247.3 307Z" fill="#277297" stroke="#277297"></path><path d="M247.3 307L207.3 376L326 393Z" fill="#00101c" stroke="#00101c"></path><path d="M326 393L240.3 451L354 412Z" fill="#00101c" stroke="#00101c"></path><path d="M325 540L435.7 540L431.7 463Z" fill="#15384f" stroke="#15384f"></path><path d="M517.3 479L618 486L545.3 331Z" fill="#081a28" stroke="#081a28"></path><path d="M353 0L235.3 0L294 101Z" fill="#112e42" stroke="#112e42"></path><path d="M235.3 0L174.3 85L294 101Z" fill="#00101c" stroke="#00101c"></path><path d="M207.3 376L240.3 451L326 393Z" fill="#112e42" stroke="#112e42"></path><path d="M431.7 463L435.7 540L517.3 479Z" fill="#277297" stroke="#277297"></path><path d="M325 540L431.7 463L354 412Z" fill="#081a28" stroke="#081a28"></path><path d="M517.3 479L518.3 540L618 486Z" fill="#15384f" stroke="#15384f"></path><path d="M435.7 540L518.3 540L517.3 479Z" fill="#297ea6" stroke="#297ea6"></path><path d="M177.3 212L131.7 270L247.3 307Z" fill="#277297" stroke="#277297"></path><path d="M207.3 376L70.7 453L240.3 451Z" fill="#1d4e6b" stroke="#1d4e6b"></path><path d="M70.7 201L131.7 270L177.3 212Z" fill="#1d4e6b" stroke="#1d4e6b"></path><path d="M755.7 122L753.7 0L672 0Z" fill="#00101c" stroke="#00101c"></path><path d="M240.3 451L325 540L354 412Z" fill="#081a28" stroke="#081a28"></path><path d="M518.3 540L646 540L618 486Z" fill="#081a28" stroke="#081a28"></path><path d="M618 486L784.7 451L719.7 341Z" fill="#246688" stroke="#246688"></path><path d="M856.3 377L841.3 303L719.7 341Z" fill="#081a28" stroke="#081a28"></path><path d="M719.7 341L841.3 303L725.7 257Z" fill="#297ea6" stroke="#297ea6"></path><path d="M755.7 122L825.3 54L753.7 0Z" fill="#0c2435" stroke="#0c2435"></path><path d="M841.3 303L852.3 169L725.7 257Z" fill="#205a7a" stroke="#205a7a"></path><path d="M0 284L106.7 355L131.7 270Z" fill="#1d4e6b" stroke="#1d4e6b"></path><path d="M131.7 270L106.7 355L207.3 376Z" fill="#277297" stroke="#277297"></path><path d="M240.3 451L188.3 540L325 540Z" fill="#19435d" stroke="#19435d"></path><path d="M852.3 169L825.3 54L755.7 122Z" fill="#205a7a" stroke="#205a7a"></path><path d="M79.7 62L70.7 201L174.3 85Z" fill="#277297" stroke="#277297"></path><path d="M174.3 85L70.7 201L177.3 212Z" fill="#1d4e6b" stroke="#1d4e6b"></path><path d="M646 540L784.7 451L618 486Z" fill="#15384f" stroke="#15384f"></path><path d="M107.7 0L79.7 62L174.3 85Z" fill="#00101c" stroke="#00101c"></path><path d="M235.3 0L107.7 0L174.3 85Z" fill="#277297" stroke="#277297"></path><path d="M784.7 451L856.3 377L719.7 341Z" fill="#15384f" stroke="#15384f"></path><path d="M960 286L960 170L852.3 169Z" fill="#15384f" stroke="#15384f"></path><path d="M138.7 540L188.3 540L240.3 451Z" fill="#112e42" stroke="#112e42"></path><path d="M960 72L845.3 0L825.3 54Z" fill="#1d4e6b" stroke="#1d4e6b"></path><path d="M825.3 54L845.3 0L753.7 0Z" fill="#297ea6" stroke="#297ea6"></path><path d="M646 540L769.7 540L784.7 451Z" fill="#00101c" stroke="#00101c"></path><path d="M784.7 451L864.3 466L856.3 377Z" fill="#277297" stroke="#277297"></path><path d="M0 430L70.7 453L106.7 355Z" fill="#112e42" stroke="#112e42"></path><path d="M106.7 355L70.7 453L207.3 376Z" fill="#19435d" stroke="#19435d"></path><path d="M70.7 453L138.7 540L240.3 451Z" fill="#15384f" stroke="#15384f"></path><path d="M0 87L0 205L70.7 201Z" fill="#15384f" stroke="#15384f"></path><path d="M70.7 201L0 284L131.7 270Z" fill="#15384f" stroke="#15384f"></path><path d="M0 87L70.7 201L79.7 62Z" fill="#1d4e6b" stroke="#1d4e6b"></path><path d="M769.7 540L864.3 466L784.7 451Z" fill="#00101c" stroke="#00101c"></path><path d="M960 286L852.3 169L841.3 303Z" fill="#0c2435" stroke="#0c2435"></path><path d="M0 205L0 284L70.7 201Z" fill="#246688" stroke="#246688"></path><path d="M0 284L0 334L106.7 355Z" fill="#0c2435" stroke="#0c2435"></path><path d="M0 0L0 87L79.7 62Z" fill="#00101c" stroke="#00101c"></path><path d="M960 286L841.3 303L960 328Z" fill="#00101c" stroke="#00101c"></path><path d="M852.3 169L960 72L825.3 54Z" fill="#297ea6" stroke="#297ea6"></path><path d="M960 328L841.3 303L856.3 377Z" fill="#277297" stroke="#277297"></path><path d="M960 432L960 328L856.3 377Z" fill="#15384f" stroke="#15384f"></path><path d="M960 170L960 72L852.3 169Z" fill="#15384f" stroke="#15384f"></path><path d="M107.7 0L0 0L79.7 62Z" fill="#0c2435" stroke="#0c2435"></path><path d="M0 334L0 430L106.7 355Z" fill="#277297" stroke="#277297"></path><path d="M70.7 453L0 540L138.7 540Z" fill="#246688" stroke="#246688"></path><path d="M769.7 540L881.3 540L864.3 466Z" fill="#1d4e6b" stroke="#1d4e6b"></path><path d="M864.3 466L960 432L856.3 377Z" fill="#081a28" stroke="#081a28"></path><path d="M960 72L960 0L845.3 0Z" fill="#297ea6" stroke="#297ea6"></path><path d="M960 540L960 432L864.3 466Z" fill="#15384f" stroke="#15384f"></path><path d="M0 430L0 540L70.7 453Z" fill="#277297" stroke="#277297"></path><path d="M881.3 540L960 540L864.3 466Z" fill="#1d4e6b" stroke="#1d4e6b"></path></g></svg>