<svg id="visual" viewBox="0 0 960 540" width="960" height="540" xmlns="http://www.w3.org/2000/svg" xmlns:xlink="http://www.w3.org/1999/xlink" version="1.1"><path d="M0 93L14.5 93.8C29 94.7 58 96.3 87.2 92.7C116.3 89 145.7 80 174.8 77.3C204 74.7 233 78.3 262 75.7C291 73 320 64 349 64C378 64 407 73 436.2 73C465.3 73 494.7 64 523.8 62.2C553 60.3 582 65.7 611 73.8C640 82 669 93 698 100.2C727 107.3 756 110.7 785.2 99.8C814.3 89 843.7 64 872.8 54.2C902 44.3 931 49.7 945.5 52.3L960 55L960 0L945.5 0C931 0 902 0 872.8 0C843.7 0 814.3 0 785.2 0C756 0 727 0 698 0C669 0 640 0 611 0C582 0 553 0 523.8 0C494.7 0 465.3 0 436.2 0C407 0 378 0 349 0C320 0 291 0 262 0C233 0 204 0 174.8 0C145.7 0 116.3 0 87.2 0C58 0 29 0 14.5 0L0 0Z" fill="#6198ff"></path><path d="M0 347L14.5 323.5C29 300 58 253 87.2 240.3C116.3 227.7 145.7 249.3 174.8 247.5C204 245.7 233 220.3 262 214C291 207.7 320 220.3 349 223.2C378 226 407 219 436.2 204.7C465.3 190.3 494.7 168.7 523.8 180.3C553 192 582 237 611 246.8C640 256.7 669 231.3 698 228.7C727 226 756 246 785.2 259.5C814.3 273 843.7 280 872.8 268.2C902 256.3 931 225.7 945.5 210.3L960 195L960 53L945.5 50.3C931 47.7 902 42.3 872.8 52.2C843.7 62 814.3 87 785.2 97.8C756 108.7 727 105.3 698 98.2C669 91 640 80 611 71.8C582 63.7 553 58.3 523.8 60.2C494.7 62 465.3 71 436.2 71C407 71 378 62 349 62C320 62 291 71 262 73.7C233 76.3 204 72.7 174.8 75.3C145.7 78 116.3 87 87.2 90.7C58 94.3 29 92.7 14.5 91.8L0 91Z" fill="#3c80ff"></path><path d="M0 384L14.5 363.3C29 342.7 58 301.3 87.2 296C116.3 290.7 145.7 321.3 174.8 319.5C204 317.7 233 283.3 262 274.3C291 265.3 320 281.7 349 288C378 294.3 407 290.7 436.2 279C465.3 267.3 494.7 247.7 523.8 260.3C553 273 582 318 611 327.8C640 337.7 669 312.3 698 306.8C727 301.3 756 315.7 785.2 326.5C814.3 337.3 843.7 344.7 872.8 337.5C902 330.3 931 308.7 945.5 297.8L960 287L960 193L945.5 208.3C931 223.7 902 254.3 872.8 266.2C843.7 278 814.3 271 785.2 257.5C756 244 727 224 698 226.7C669 229.3 640 254.7 611 244.8C582 235 553 190 523.8 178.3C494.7 166.7 465.3 188.3 436.2 202.7C407 217 378 224 349 221.2C320 218.3 291 205.7 262 212C233 218.3 204 243.7 174.8 245.5C145.7 247.3 116.3 225.7 87.2 238.3C58 251 29 298 14.5 321.5L0 345Z" fill="#0066ff"></path><path d="M0 438L14.5 428.2C29 418.3 58 398.7 87.2 400.5C116.3 402.3 145.7 425.7 174.8 413C204 400.3 233 351.7 262 343.7C291 335.7 320 368.3 349 382.8C378 397.3 407 393.7 436.2 389.2C465.3 384.7 494.7 379.3 523.8 390.2C553 401 582 428 611 428.8C640 429.7 669 404.3 698 395.3C727 386.3 756 393.7 785.2 398.2C814.3 402.7 843.7 404.3 872.8 395.3C902 386.3 931 366.7 945.5 356.8L960 347L960 285L945.5 295.8C931 306.7 902 328.3 872.8 335.5C843.7 342.7 814.3 335.3 785.2 324.5C756 313.7 727 299.3 698 304.8C669 310.3 640 335.7 611 325.8C582 316 553 271 523.8 258.3C494.7 245.7 465.3 265.3 436.2 277C407 288.7 378 292.3 349 286C320 279.7 291 263.3 262 272.3C233 281.3 204 315.7 174.8 317.5C145.7 319.3 116.3 288.7 87.2 294C58 299.3 29 340.7 14.5 361.3L0 382Z" fill="#0059dd"></path><path d="M0 541L14.5 541C29 541 58 541 87.2 541C116.3 541 145.7 541 174.8 541C204 541 233 541 262 541C291 541 320 541 349 541C378 541 407 541 436.2 541C465.3 541 494.7 541 523.8 541C553 541 582 541 611 541C640 541 669 541 698 541C727 541 756 541 785.2 541C814.3 541 843.7 541 872.8 541C902 541 931 541 945.5 541L960 541L960 345L945.5 354.8C931 364.7 902 384.3 872.8 393.3C843.7 402.3 814.3 400.7 785.2 396.2C756 391.7 727 384.3 698 393.3C669 402.3 640 427.7 611 426.8C582 426 553 399 523.8 388.2C494.7 377.3 465.3 382.7 436.2 387.2C407 391.7 378 395.3 349 380.8C320 366.3 291 333.7 262 341.7C233 349.7 204 398.3 174.8 411C145.7 423.7 116.3 400.3 87.2 398.5C58 396.7 29 416.3 14.5 426.2L0 436Z" fill="#004cbb"></path></svg>