<svg id="visual" viewBox="0 0 960 540" width="960" height="540" xmlns="http://www.w3.org/2000/svg" xmlns:xlink="http://www.w3.org/1999/xlink" version="1.1"><path d="M0 152L87 152L87 179L175 179L175 206L262 206L262 255L349 255L349 260L436 260L436 104L524 104L524 71L611 71L611 185L698 185L698 98L785 98L785 158L873 158L873 98L960 98L960 190L960 0L960 0L873 0L873 0L785 0L785 0L698 0L698 0L611 0L611 0L524 0L524 0L436 0L436 0L349 0L349 0L262 0L262 0L175 0L175 0L87 0L87 0L0 0Z" fill="#fa7268"></path><path d="M0 303L87 303L87 266L175 266L175 374L262 374L262 347L349 347L349 379L436 379L436 347L524 347L524 260L611 260L611 341L698 341L698 293L785 293L785 260L873 260L873 314L960 314L960 271L960 188L960 96L873 96L873 156L785 156L785 96L698 96L698 183L611 183L611 69L524 69L524 102L436 102L436 258L349 258L349 253L262 253L262 204L175 204L175 177L87 177L87 150L0 150Z" fill="#ea5e66"></path><path d="M0 406L87 406L87 384L175 384L175 444L262 444L262 395L349 395L349 444L436 444L436 422L524 422L524 406L611 406L611 433L698 433L698 368L785 368L785 384L873 384L873 401L960 401L960 368L960 269L960 312L873 312L873 258L785 258L785 291L698 291L698 339L611 339L611 258L524 258L524 345L436 345L436 377L349 377L349 345L262 345L262 372L175 372L175 264L87 264L87 301L0 301Z" fill="#d84a64"></path><path d="M0 492L87 492L87 460L175 460L175 498L262 498L262 465L349 465L349 487L436 487L436 482L524 482L524 471L611 471L611 503L698 503L698 482L785 482L785 482L873 482L873 482L960 482L960 455L960 366L960 399L873 399L873 382L785 382L785 366L698 366L698 431L611 431L611 404L524 404L524 420L436 420L436 442L349 442L349 393L262 393L262 442L175 442L175 382L87 382L87 404L0 404Z" fill="#c53762"></path><path d="M0 541L87 541L87 541L175 541L175 541L262 541L262 541L349 541L349 541L436 541L436 541L524 541L524 541L611 541L611 541L698 541L698 541L785 541L785 541L873 541L873 541L960 541L960 541L960 453L960 480L873 480L873 480L785 480L785 480L698 480L698 501L611 501L611 469L524 469L524 480L436 480L436 485L349 485L349 463L262 463L262 496L175 496L175 458L87 458L87 490L0 490Z" fill="#b0235f"></path></svg>