<svg id="visual" viewBox="0 0 960 540" width="960" height="540" xmlns="http://www.w3.org/2000/svg" xmlns:xlink="http://www.w3.org/1999/xlink" version="1.1"><rect x="0" y="0" width="960" height="540" fill="#002233"></rect><path d="M0 403L22.8 412.7C45.7 422.3 91.3 441.7 137 449C182.7 456.3 228.3 451.7 274 448.7C319.7 445.7 365.3 444.3 411.2 446.7C457 449 503 455 548.8 455.2C594.7 455.3 640.3 449.7 686 440.5C731.7 431.3 777.3 418.7 823 412.8C868.7 407 914.3 408 937.2 408.5L960 409L960 541L937.2 541C914.3 541 868.7 541 823 541C777.3 541 731.7 541 686 541C640.3 541 594.7 541 548.8 541C503 541 457 541 411.2 541C365.3 541 319.7 541 274 541C228.3 541 182.7 541 137 541C91.3 541 45.7 541 22.8 541L0 541Z" fill="#0066FF" stroke-linecap="round" stroke-linejoin="miter"></path></svg>